{"title":"42 2013.WEBrip.XviD.AC3-SmY","uid":8425569,"size":2060247337,"categoryP":"video","categoryS":"movies","magnet":"?xt=urn:btih:ece307b3cfd759ad02263cac3e14d89270fb3e64&amp;dn=42+2013.WEBrip.XviD.AC3-SmY&amp;tr=udp%3A%2F%2Ftracker.openbittorrent.com%3A80&amp;tr=udp%3A%2F%2Fopen.demonii.com%3A1337&amp;tr=udp%3A%2F%2Ftracker.coppersurfer.tk%3A6969&amp;tr=udp%3A%2F%2Fexodus.desync.com%3A6969","seeders":1,"leechers":0,"uploader":"xxxlavalxxx","files":-1,"time":1367335375,"description":" &lt;a href=&quot;http://www.imdb.com/title/tt0453562/&quot; rel=&quot;nofollow&quot; target=&quot;_NEW&quot;&gt;http://www.imdb.com/title/tt0453562/&lt;/a&gt;\n\n\n\nThe life story of Jackie Robinson and his history-making signing with the Brooklyn Dodgers under the guidance of team executive Branch Rickey. \n\n\n\nDirector:\n Brian Helgeland \n\nWriter:\n Brian Helgeland (screenplay) \n\nStars:\n Chadwick Boseman, Harrison Ford, Nicole Beharie \n\nGenres:\n  Biography |  Drama |  Sport \n\nCountry:\n USA \n\nLanguage:\n English \n\n\n\n    \nFormat                                   : AVI\nFormat/Info                              : Audio Video Interleave\nFile size                                : 1.92 GiB\nDuration                                 : 2h 8mn\nOverall bit rate                         : 2 145 Kbps\n\nVideo\nID                                       : 0\nFormat                                   : MPEG-4 Visual\nFormat profile                           : Advanced Simple@L5\nFormat settings, BVOP                    : 2\nFormat settings, QPel                    : No\nFormat settings, GMC                     : No warppoints\nFormat settings, Matrix                  : Default (H.263)\nCodec ID                                 : XVID\nCodec ID/Hint                            : XviD\nDuration                                 : 2h 8mn\nBit rate                                 : 2 009 Kbps\nWidth                                    : 720 pixels\nHeight                                   : 304 pixels\nDisplay aspect ratio                     : 2.35:1\nFrame rate                               : 24.000 fps\nColor space                              : YUV\nChroma subsampling                       : 4:2:0\nBit depth                                : 8 bits\nScan type                                : Progressive\nCompression mode                         : Lossy\nBits/(Pixel*Frame)                       : 0.382\nStream size                              : 1.80 GiB (94%)\nWriting library                          : XviD 1.2.1 (UTC 2008-12-04)\n\nAudio\nID                                       : 1\nFormat                                   : AC-3\nFormat/Info                              : Audio Coding 3\nMode extension                           : CM (complete main)\nFormat settings, Endianness              : Big\nCodec ID                                 : 2000\nDuration                                 : 2h 8mn\nBit rate mode                            : Constant\nBit rate                                 : 128 Kbps\nChannel(s)                               : 2 channels\nChannel positions                        : Front: L R\nSampling rate                            : 48.0 KHz\nBit depth                                : 16 bits\nCompression mode                         : Lossy\nStream size                              : 117 MiB (6%)\nAlignment                                : Aligned on interleaves\nInterleave, duration                     : 64 ms (1.54 video frames)\nInterleave, preload duration             : 192 ms\nTitle                                    : xiyou (2)\n\n\n\n\n    &lt;a href=&quot;\thttp://www.shotpix.com/images/42637606896556334975.jpg&quot; rel=&quot;nofollow&quot; target=&quot;_NEW&quot;&gt;\thttp://www.shotpix.com/images/42637606896556334975.jpg&lt;/a&gt;\n    &lt;a href=&quot;\thttp://www.shotpix.com/images/84584586353951610652.jpg&quot; rel=&quot;nofollow&quot; target=&quot;_NEW&quot;&gt;\thttp://www.shotpix.com/images/84584586353951610652.jpg&lt;/a&gt;\n    &lt;a href=&quot;\thttp://www.shotpix.com/images/31478888524339841139.jpg&quot; rel=&quot;nofollow&quot; target=&quot;_NEW&quot;&gt;\thttp://www.shotpix.com/images/31478888524339841139.jpg&lt;/a&gt;","torrent":{"xt":"urn:btih:ece307b3cfd759ad02263cac3e14d89270fb3e64","amp;dn":"42+2013.WEBrip.XviD.AC3-SmY","amp;tr":["udp%3A%2F%2Ftracker.openbittorrent.com%3A80","udp%3A%2F%2Fopen.demonii.com%3A1337","udp%3A%2F%2Ftracker.coppersurfer.tk%3A6969","udp%3A%2F%2Fexodus.desync.com%3A6969"],"infoHash":"ece307b3cfd759ad02263cac3e14d89270fb3e64","infoHashBuffer":{"type":"Buffer","data":[236,227,7,179,207,215,89,173,2,38,60,172,62,20,216,146,112,251,62,100]},"announce":[],"urlList":[]}}